<?xml version="1.0" encoding="UTF-8"?>
<!-- Created with Inkscape (http://www.inkscape.org/) -->
<svg width="147.45mm" height="57.815mm" version="1.1" viewBox="0 0 147.45 57.815" xmlns="http://www.w3.org/2000/svg" xmlns:cc="http://creativecommons.org/ns#" xmlns:dc="http://purl.org/dc/elements/1.1/" xmlns:rdf="http://www.w3.org/1999/02/22-rdf-syntax-ns#">
 <metadata>
  <rdf:RDF>
   <cc:Work rdf:about="">
    <dc:format>image/svg+xml</dc:format>
    <dc:type rdf:resource="http://purl.org/dc/dcmitype/StillImage"/>
    <dc:title/>
   </cc:Work>
  </rdf:RDF>
 </metadata>
 <g transform="translate(-47.68 -57.42)">
  <path d="m69.463 114.27c0.01079-0.59235 3.3282-13.287 7.3717-28.21l7.3519-27.133 3.3358-0.17258c2.5436-0.13158 3.3334 0.01166 3.3258 0.60295-0.0047 0.42653-3.325 13.121-7.3767 28.21l-7.3668 27.434-3.3308 0.17257c-3.0105 0.15599-3.3289 0.069-3.311-0.90441zm6.455-0.77552c0.09945-0.64039 0.05406-0.69249-0.15546-0.17848-0.17354 0.42573-1.4342 0.81743-3.0486 0.94721l-2.7527 0.22128 2.9081-0.0429c2.2778-0.0335 2.9386-0.23882 3.0486-0.9472zm-5.1038-2.1103c0-0.33161-0.15067-0.19595-0.33482 0.30148-0.18415 0.49743-0.33482 1.1758-0.33482 1.5074 0 0.33163 0.15067 0.19596 0.33482-0.30147 0.18416-0.49743 0.33482-1.1757 0.33482-1.5074zm4.407 1.3566c0.18491-0.41452 3.0227-10.793 6.3062-23.063 3.2835-12.27 6.4019-23.869 6.9299-25.776l0.95996-3.4669-4.2582 0.001822-6.5358 24.268c-3.5947 13.347-6.8231 25.285-7.1741 26.529l-0.63833 2.2611h2.0371c1.2201 0 2.172-0.30227 2.3734-0.75369zm3.5189-9.7979c0-0.33162-0.29783 0.34669-0.66185 1.5074-0.36402 1.1607-0.66185 2.3816-0.66185 2.7133 0 0.33161 0.29783-0.3467 0.66185-1.5074 0.36402-1.1607 0.66185-2.3816 0.66185-2.7133zm-5.1766-1.8088c0-0.33162-0.22213 0.0754-0.49363 0.90442-0.27149 0.82905-0.49363 1.7787-0.49363 2.1103 0 0.33161 0.22213-0.0754 0.49363-0.90443 0.27149-0.82905 0.49363-1.7787 0.49363-2.1103zm7.5944-7.2354c0-0.33162-0.29783 0.3467-0.66185 1.5074-0.36402 1.1607-0.66185 2.3816-0.66185 2.7133 0 0.33162 0.29783-0.34669 0.66185-1.5074 0.36402-1.1607 0.66185-2.3816 0.66185-2.7133zm-4.4902-4.2206c0-0.33162-0.29783 0.34669-0.66185 1.5074-0.36402 1.1607-0.66185 2.3816-0.66185 2.7133s0.29783-0.34669 0.66185-1.5074c0.36402-1.1607 0.66185-2.3816 0.66185-2.7133zm7.2535-6.0295c0-0.33162-0.29784 0.34669-0.66186 1.5074-0.36401 1.1607-0.66185 2.3816-0.66185 2.7133 0 0.33162 0.29784-0.34669 0.66185-1.5074 0.36402-1.1607 0.66186-2.3816 0.66186-2.7133zm-4.1471-5.4265c0-0.33162-0.37454 0.61802-0.83229 2.1103-0.45777 1.4923-0.83229 2.9846-0.83229 3.3162 0 0.33162 0.37452-0.61802 0.83229-2.1103 0.45776-1.4923 0.83229-2.9846 0.83229-3.3162zm6.5649-3.6177c0-0.33162-0.29783 0.34669-0.66184 1.5074-0.36402 1.1607-0.66185 2.3816-0.66185 2.7133 0 0.33162 0.29783-0.34669 0.66185-1.5074 0.36401-1.1607 0.66184-2.3816 0.66184-2.7133zm-3.7994-6.6324c0-0.33162-0.29782 0.3467-0.66184 1.5074-0.36403 1.1607-0.66185 2.3816-0.66185 2.7133 0 0.33162 0.29782-0.3467 0.66185-1.5074 0.36402-1.1607 0.66184-2.3816 0.66184-2.7133zm6.5627-3.6177c0-0.33162-0.29782 0.34669-0.66185 1.5074-0.36402 1.1607-0.66184 2.3816-0.66184 2.7133 0 0.33162 0.29782-0.3467 0.66184-1.5074 0.36403-1.1607 0.66185-2.3816 0.66185-2.7133zm-1.8468-4.5221c1.6437 0 2.5566 0.2494 2.647 0.7232 0.08641 0.45235 0.22246 0.33944 0.36334-0.30147 0.201-0.91434-0.08843-1.0247-2.6877-1.0247-2.5264 0-2.9604 0.15476-3.2705 1.1663-0.19666 0.64144-0.34705 1.3876-0.33419 1.6581 0.01304 0.27052 0.19204-0.11864 0.3982-0.86478 0.33769-1.2223 0.6232-1.3566 2.8838-1.3566zm-30.074 40.989c-4.7493-3.9357-8.8294-7.4531-9.0668-7.8164-0.4706-0.72005-0.60686-8.8723-0.16741-10.016 0.26049-0.67823 17.8-15.317 18.352-15.317 0.52618 0 0.72611 1.747 0.72611 6.3447 0 2.8927-0.15028 4.6037-0.43175 4.9155-0.53399 0.59157-8.7532 7.3237-9.9085 8.1158-0.75671 0.5188-0.32091 1.0066 4.3175 4.8325 2.8376 2.3405 5.3535 4.5318 5.591 4.8695 0.2738 0.38945 0.43175 2.2234 0.43175 5.0131 0 4.7771-0.20213 6.3315-0.81411 6.2608-0.21714-0.0251-4.2806-3.2658-9.0299-7.2015zm9.0808 1.1154c-0.06915-3.3955-0.23714-4.9736-0.54071-5.0798-0.24221-0.08472-0.28107-0.01617-0.08635 0.15246 0.19485 0.16868 0.35404 2.3462 0.35404 4.8429 0 4.0798-0.06083 4.4937-0.60446 4.1125-1.3196-0.92528-1.5996-0.95037-0.77716-0.0697 1.6168 1.7313 1.7634 1.3806 1.6546-3.9583zm-0.61954-0.35-0.0011-3.4669-5.8799-4.8193c-3.9224-3.2149-5.8481-5.1018-5.7844-5.6677 0.05253-0.46661 2.6601-2.9204 5.7947-5.4529l5.6992-4.6046 0.10359-3.4448c0.05697-1.8946 0.0088-3.4448-0.10704-3.4448-0.11584 0-3.8151 2.9828-8.2206 6.6284l-8.0099 6.6284-0.10096 3.8326-0.10096 3.8326 8.0452 6.6862c4.4249 3.6774 8.1618 6.7027 8.3043 6.723 0.14248 0.0203 0.25855-1.5233 0.25794-3.4301zm-6.5615-0.75369c-0.6649-0.63543-1.3643-1.1553-1.5543-1.1553-0.18997 0 0.19861 0.51992 0.86351 1.1553 0.6649 0.63545 1.3643 1.1554 1.5543 1.1554 0.18997 0-0.19861-0.5199-0.86351-1.1554zm-6.2173-5.125c-0.85488-0.79908-1.7097-1.4529-1.8997-1.4529-0.18997 0 0.35404 0.6538 1.2089 1.4529 0.85488 0.79908 1.7097 1.4529 1.8997 1.4529 0.18997 0-0.35404-0.65379-1.2089-1.4529zm7.2535-3.6177c-0.85487-0.79908-1.7097-1.4529-1.8997-1.4529-0.18997 0 0.35404 0.6538 1.2089 1.4529 0.85487 0.79908 1.7097 1.4529 1.8997 1.4529 0.18997 0-0.35404-0.65379-1.2089-1.4529zm-4.71-4.2172c-0.10893-0.49553-0.35379-0.73294-0.54414-0.52758-0.2128 0.22959-0.16561 0.573 0.12254 0.89172 0.62892 0.69563 0.65047 0.67701 0.4216-0.36414zm4.0192-3.9226c0.6649-0.63544 1.0535-1.1553 0.86351-1.1553-0.18997 0-0.88941 0.51991-1.5543 1.1553-0.6649 0.63544-1.0535 1.1553-0.86351 1.1553 0.18997 0 0.88942-0.51991 1.5543-1.1553zm4.4902-3.6177c0.6649-0.63544 1.0535-1.1553 0.86351-1.1553s-0.88941 0.51991-1.5543 1.1553c-0.6649 0.63544-1.0535 1.1553-0.86351 1.1553 0.18997 0 0.88941-0.51991 1.5543-1.1553zm-10.362-0.90442c0.85487-0.79908 1.3989-1.4529 1.2089-1.4529-0.18997 0-1.0448 0.65379-1.8997 1.4529-0.85488 0.79908-1.3989 1.4529-1.2089 1.4529s1.0448-0.65379 1.8997-1.4529zm12.626-10.419c-0.10157-0.17732-0.53589-7e-3 -0.96515 0.37845l-0.78047 0.70084 0.77716-0.34528c0.75247-0.33431 0.77937-0.19552 0.84667 4.3682l0.06952 4.7135 0.11849-4.7466c0.06517-2.6106 0.03538-4.8917-0.0662-5.069zm-6.4086 5.2936c0.6649-0.63544 1.0535-1.1553 0.86351-1.1553-0.18997 0-0.88941 0.51991-1.5543 1.1553-0.6649 0.63544-1.0535 1.1553-0.86351 1.1553 0.18997 0 0.88941-0.51991 1.5543-1.1553zm117.17 28.007 0.0989-5.7576 5.2398-4.3418c2.8819-2.388 5.1357-4.5052 5.0084-4.705-0.12728-0.19979-2.5241-2.2054-5.3262-4.4569l-5.0947-4.0937v-5.6425c0-3.7599 0.12897-5.6425 0.38653-5.6425 0.5071 0 17.298 13.817 17.747 14.604 0.23099 0.40481 0.0594 0.48196-0.51811 0.2329-0.86033-0.37105-0.8606-0.36981-0.0737 0.33566 0.74099 0.66437 0.78363 1.02 0.6908 5.7618l-0.099 5.0538-8.6351 7.1809c-4.7493 3.9495-8.835 7.1916-9.0794 7.2047-0.33868 0.0182-0.42076-1.3445-0.3454-5.7338zm1.0654 4.0726c-0.24257-0.26916-0.46526-2.3327-0.53582-4.9651l-0.12075-4.5045-0.0686 4.9743c-0.0605 4.3842 2e-3 4.9732 0.53583 4.9651 0.41122-6e-3 0.47176-0.15647 0.18937-0.46981zm8.1362-7.7679c4.3021-3.541 8.0163-6.6944 8.2538-7.0077 0.24924-0.32881 0.43175-1.9091 0.43175-3.7382 0-1.8142-0.18453-3.4239-0.43175-3.766-0.23746-0.32859-2.7962-2.5316-5.6861-4.8956-2.8899-2.364-6.5109-5.3701-8.0466-6.6801l-2.7923-2.382 0.10229 3.6996 0.1023 3.6996 5.6988 4.5987c3.1343 2.5293 5.7418 4.9886 5.7944 5.465 0.0646 0.58554-1.8103 2.4616-5.7851 5.7889l-5.8807 4.9226v3.3666c0 1.8516 0.0939 3.3666 0.20864 3.3666s3.7285-2.8971 8.0306-6.4381zm-2.3674 3.4234c0.66491-0.63544 1.0535-1.1554 0.8635-1.1554-0.18996 0-0.88941 0.51991-1.5543 1.1554-0.66491 0.63544-1.0535 1.1554-0.86351 1.1554s0.88941-0.51991 1.5543-1.1554zm6.5627-5.4265c0.6649-0.63544 1.0535-1.1553 0.86349-1.1553-0.18996 0-0.8894 0.51991-1.5543 1.1553-0.6649 0.63544-1.0535 1.1553-0.86351 1.1553 0.18996 0 0.88941-0.51991 1.5543-1.1553zm-7.5989-3.3162c0.85488-0.79908 1.3989-1.4529 1.2089-1.4529-0.18998 0-1.0448 0.65379-1.8997 1.4529-0.85487 0.79908-1.3989 1.4529-1.2089 1.4529 0.18999 0 1.0449-0.65379 1.8997-1.4529zm6.0352-5.0986c0.22398-0.63264-1.451-2.8032-1.7544-2.2735-0.10336 0.18046 0.14586 0.51304 0.55387 0.73909 0.45059 0.24965 0.66846 0.74467 0.55497 1.2609-0.20856 0.94874 0.32632 1.1753 0.64561 0.27349zm-4.6536-4.8501c-0.66491-0.63544-1.3644-1.1553-1.5543-1.1553s0.19861 0.51991 0.86351 1.1553c0.66489 0.63544 1.3644 1.1553 1.5543 1.1553 0.18999 0-0.19859-0.5199-0.86349-1.1553zm-5.2674-4.2617-1.2953-1.1936v-4.156c0-2.7606 0.14497-4.2581 0.43177-4.4601 0.25793-0.18167 0.1884-0.32328-0.17271-0.35172-0.52645-0.04146-0.60446 0.56072-0.60446 4.6666v4.7142l1.1226 0.97525c1.6113 1.3999 2.0639 1.2299 0.51809-0.19457zm10.794-0.56189c-0.6649-0.63544-1.3644-1.1553-1.5543-1.1553-0.18998 0 0.1986 0.51991 0.8635 1.1553 0.66492 0.63544 1.3644 1.1553 1.5543 1.1553 0.18998 0-0.1986-0.51991-0.8635-1.1553zm-6.5627-5.4265c-0.66491-0.63544-1.3644-1.1553-1.5543-1.1553-0.18998 0 0.1986 0.51991 0.8635 1.1553 0.6649 0.63544 1.3643 1.1553 1.5543 1.1553 0.18999 0-0.1986-0.51991-0.8635-1.1553zm-86.353 31.996c-2.8626-1.52-5.8255-6.6121-6.5783-11.305-1.5117-9.4248 0.53117-18.385 5.0765-22.267 2.1955-1.8751 6.005-2.5773 8.2447-1.5197 1.798 0.84902 4.6576 4.022 4.6576 5.168 0 0.49077-0.6211 2.0321-1.3802 3.4251-1.2903 2.3677-1.4206 2.4691-1.9987 1.5558-2.9652-4.6842-8.0471-3.2316-9.7132 2.7765-1.2839 4.6295-0.77879 8.8741 1.4652 12.313 2.3803 3.6482 5.477 3.8283 7.7754 0.4523 0.55848-0.82033 1.2261-1.4915 1.4837-1.4915 0.56879 2.1e-5 2.368 3.8151 2.368 5.0212 0 1.2141-2.1829 3.983-4.1893 5.3138-1.7456 1.1578-5.5297 1.4504-7.2112 0.55756zm7.0593-1.6498c1.6191-0.98397 3.6505-3.5694 3.6505-4.6463 0-0.42275-0.38694-1.4032-0.85988-2.1788-0.78325-1.2845-0.91408-1.3272-1.468-0.47928-1.8513 2.8341-5.1441 3.7497-7.4463 2.0705-2.0509-1.4959-4.0382-6.7327-4.0382-10.641 0-4.0302 1.7368-8.5646 3.954-10.323 2.015-1.5978 3.9001-1.4278 6.1517 0.55478l1.9172 1.6881 1.9065-4.1709-1.0084-1.4051c-2.2602-3.1494-6.7188-4.1741-9.9082-2.277-2.0914 1.2439-4.4872 4.9829-5.481 8.5535-1.2042 4.3269-1.1409 10.75 0.15118 15.343 2.2235 7.904 7.2487 11.09 12.479 7.9115zm11.361 1.2258c-2.005-1.2402-4.3772-5.0732-5.4368-8.7849-0.75186-2.6338-0.89248-3.9441-0.89248-8.3162 0-4.3634 0.1412-5.6844 0.88674-8.296 1.6493-5.7776 4.7213-9.2121 8.6393-9.6589 4.6945-0.53534 8.3936 2.9215 10.423 9.7408 0.78613 2.641 0.91899 3.8325 0.91596 8.2141-2e-3 4.1198-0.16034 5.6881-0.80297 7.9957-1.016 3.6484-3.7082 7.8936-5.7917 9.1328-1.9996 1.1894-5.9965 1.1756-7.9414-0.0274zm7.8988-1.2014c1.8875-1.0479 4.0493-4.4631 5.1824-8.1872 0.64147-2.1081 0.78731-3.5367 0.78731-7.7124 0-6.0446-0.6178-8.6029-3.0051-12.444-2.2006-3.5409-4.1302-4.6566-7.4696-4.3191-3.1151 0.31479-5.0453 1.8945-6.9557 5.6928-3.1652 6.293-3.1518 15.84 0.0312 22.152 2.95 5.8502 6.7131 7.4365 11.429 4.8181zm-5.5506-4.4449c-5.597-2.3068-6.5081-17.611-1.305-21.921 1.4672-1.2153 4.7619-1.293 6.029-0.14213 5.1871 4.7112 4.3672 19.321-1.2368 22.038-1.4486 0.70231-1.8377 0.70514-3.4873 0.02527zm4.4616-1.9901c2.6434-2.4402 3.8452-8.7801 2.6282-13.865-0.70206-2.9332-2.7025-5.7015-4.4507-6.1591-5.4713-1.4322-8.972 10.566-5.206 17.843 1.9217 3.7132 4.5016 4.5137 7.0286 2.1811zm15.443 8.0212c-1.316-0.69135-3.6013-3.7222-4.615-6.1208-1.8933-4.4797-2.422-12.924-1.1738-18.748 0.74647-3.4827 2.8271-7.4564 4.8233-9.2118 1.5284-1.344 4.958-1.8224 6.806-0.94936 0.79018 0.3733 1.917 1.4621 2.5042 2.4195l1.0675 1.7407v-8.3817c0-5.1858 0.13169-8.3817 0.3454-8.3817 0.48978 0 0.46254 17.288-0.0281 17.817-0.20541 0.22162-0.78827-0.27406-1.2953-1.1015-1.5187-2.4786-2.982-3.4509-5.1935-3.4509-2.6141 0-4.7623 1.5748-6.5606 4.8094-1.6921 3.0436-2.4657 6.8317-2.4657 12.073 0 7.3213 1.531 12.177 4.8265 15.308 3.0203 2.8696 7.1456 2.234 9.145-1.409 1.1838-2.157 1.917-1.7985 1.917 0.93738v2.0458h3.454v-23.515c0-15.455 0.1197-23.515 0.3494-23.515 0.23122 0 0.31885 8.0055 0.25906 23.666l-0.0903 23.666-2.3315 0.17828-2.3315 0.17826v-3.883l-0.78188 1.2822c-0.43001 0.70522-1.3576 1.7022-2.0613 2.2154-1.3628 0.994-4.9614 1.1751-6.5691 0.33056zm21.613-0.35042c-1.9824-1.2733-4.3591-5.0815-5.3244-8.5311-0.66685-2.383-0.80699-3.8587-0.81712-8.6043-0.0119-5.2352 0.0755-6.0046 1.0067-8.9433 1.7574-5.5456 4.4745-8.5459 8.1574-9.0074 3.2801-0.41105 5.8217 1.0193 7.9308 4.4631 2.0364 3.3251 2.7508 6.6209 2.7508 12.691v4.4147h-7.5989c-8.6258 0-8.7493 0.08514-6.2196 4.2859 1.5311 2.5425 2.9223 3.2504 5.5286 2.8133 1.4906-0.25002 2.1271-0.75243 4.0103-3.1653 0.33241-0.42591 0.79572-0.01892 1.6786 1.4749 0.6707 1.1348 1.2194 2.3697 1.2194 2.7442 0 1.009-1.3478 2.9828-3.1086 4.5525-2.0091 1.791-7.0046 2.2314-9.2139 0.81223zm6.6073-0.56402c1.3737-0.39478 3.2429-1.8924 4.4852-3.5934 0.65378-0.89525 0.64618-0.95969-0.32114-2.7222-0.9149-1.667-1.0372-1.7319-1.5967-0.84814-1.7749 2.804-5.8289 3.4393-8.2608 1.2947-1.6878-1.4884-3.1845-4.8311-3.0264-6.7592 0.0976-1.189 0.35054-1.2353 7.6134-1.3924l7.5125-0.16251v-3.6867c0-5.3038-0.61316-8.2501-2.3213-11.154-1.8-3.0606-3.9705-4.4339-6.9798-4.4164-5.7919 0.03379-9.6183 7.4955-9.269 18.075 0.17747 5.3762 0.97081 8.443 3.02 11.675 1.5198 2.3968 2.4671 3.2066 4.6699 3.9917 1.37 0.48833 1.8368 0.45693 4.4742-0.30104zm-8.6638-19.271c-0.83648-3.8052 2.7048-9.3776 5.9394-9.3461 3.0287 0.02951 5.8087 4.0654 5.5977 8.1265l-0.094 1.8088-5.6204 0.16574c-4.7806 0.14097-5.6506 0.02816-5.8228-0.75503zm10.925-1.7412c0-3.2327-2.4949-6.4122-5.0314-6.4122-2.3332 0-5.3307 3.7555-5.3307 6.6787 0 1.0927 0.29916 1.1596 5.181 1.1596h5.1811zm-28.353 15.954c-2.7613-1.5563-4.4604-5.7976-4.4604-11.134 0-1.8883 0.21461-4.3064 0.47692-5.3735 0.71254-2.8987 2.598-5.6947 4.407-6.5352 3.855-1.7911 7.5414 4.1493 7.5487 12.164 2e-3 2.9397-1.4739 7.825-2.8589 9.459-1.2749 1.5041-3.7458 2.19-5.1133 1.4193zm4.8616-2.4646c2.0214-2.5127 2.9967-8.7198 2.0551-13.08-0.52348-2.4237-2.3228-5.4804-3.6895-6.2678-3.5176-2.0265-7.0955 3.3227-7.0955 10.608 0 4.5213 0.97095 7.2715 3.38 9.5739 1.4098 1.3474 3.908 0.95769 5.3499-0.8346z" stroke-width=".45635"/>
 </g>
</svg>
